<svg id="visual" viewBox="0 0 960 540" width="960" height="540" xmlns="http://www.w3.org/2000/svg" xmlns:xlink="http://www.w3.org/1999/xlink" version="1.1"><path d="M0 55L14.5 55.8C29 56.7 58 58.3 87.2 60.2C116.3 62 145.7 64 174.8 63.2C204 62.3 233 58.7 262 55C291 51.3 320 47.7 349 52.2C378 56.7 407 69.3 436.2 75.7C465.3 82 494.7 82 523.8 79.3C553 76.7 582 71.3 611 67.7C640 64 669 62 698 64.7C727 67.3 756 74.7 785.2 80.2C814.3 85.7 843.7 89.3 872.8 90.2C902 91 931 89 945.5 88L960 87L960 0L945.5 0C931 0 902 0 872.8 0C843.7 0 814.3 0 785.2 0C756 0 727 0 698 0C669 0 640 0 611 0C582 0 553 0 523.8 0C494.7 0 465.3 0 436.2 0C407 0 378 0 349 0C320 0 291 0 262 0C233 0 204 0 174.8 0C145.7 0 116.3 0 87.2 0C58 0 29 0 14.5 0L0 0Z" fill="#36b796"></path><path d="M0 163L14.5 159.3C29 155.7 58 148.3 87.2 145.7C116.3 143 145.7 145 174.8 147.8C204 150.7 233 154.3 262 150.7C291 147 320 136 349 130.5C378 125 407 125 436.2 125C465.3 125 494.7 125 523.8 134C553 143 582 161 611 167.3C640 173.7 669 168.3 698 172.8C727 177.3 756 191.7 785.2 190.8C814.3 190 843.7 174 872.8 164.2C902 154.3 931 150.7 945.5 148.8L960 147L960 85L945.5 86C931 87 902 89 872.8 88.2C843.7 87.3 814.3 83.7 785.2 78.2C756 72.7 727 65.3 698 62.7C669 60 640 62 611 65.7C582 69.3 553 74.7 523.8 77.3C494.7 80 465.3 80 436.2 73.7C407 67.3 378 54.7 349 50.2C320 45.7 291 49.3 262 53C233 56.7 204 60.3 174.8 61.2C145.7 62 116.3 60 87.2 58.2C58 56.3 29 54.7 14.5 53.8L0 53Z" fill="#21a584"></path><path d="M0 314L14.5 329.3C29 344.7 58 375.3 87.2 382.5C116.3 389.7 145.7 373.3 174.8 352.7C204 332 233 307 262 289C291 271 320 260 349 260C378 260 407 271 436.2 265.7C465.3 260.3 494.7 238.7 523.8 247.7C553 256.7 582 296.3 611 306.2C640 316 669 296 698 287.8C727 279.7 756 283.3 785.2 287C814.3 290.7 843.7 294.3 872.8 300.7C902 307 931 316 945.5 320.5L960 325L960 145L945.5 146.8C931 148.7 902 152.3 872.8 162.2C843.7 172 814.3 188 785.2 188.8C756 189.7 727 175.3 698 170.8C669 166.3 640 171.7 611 165.3C582 159 553 141 523.8 132C494.7 123 465.3 123 436.2 123C407 123 378 123 349 128.5C320 134 291 145 262 148.7C233 152.3 204 148.7 174.8 145.8C145.7 143 116.3 141 87.2 143.7C58 146.3 29 153.7 14.5 157.3L0 161Z" fill="#009473"></path><path d="M0 460L14.5 466.3C29 472.7 58 485.3 87.2 488C116.3 490.7 145.7 483.3 174.8 484.2C204 485 233 494 262 488.7C291 483.3 320 463.7 349 452.8C378 442 407 440 436.2 438.2C465.3 436.3 494.7 434.7 523.8 435.7C553 436.7 582 440.3 611 450.2C640 460 669 476 698 485.8C727 495.7 756 499.3 785.2 494C814.3 488.7 843.7 474.3 872.8 464.5C902 454.7 931 449.3 945.5 446.7L960 444L960 323L945.5 318.5C931 314 902 305 872.8 298.7C843.7 292.3 814.3 288.7 785.2 285C756 281.3 727 277.7 698 285.8C669 294 640 314 611 304.2C582 294.3 553 254.7 523.8 245.7C494.7 236.7 465.3 258.3 436.2 263.7C407 269 378 258 349 258C320 258 291 269 262 287C233 305 204 330 174.8 350.7C145.7 371.3 116.3 387.7 87.2 380.5C58 373.3 29 342.7 14.5 327.3L0 312Z" fill="#008064"></path><path d="M0 541L14.5 541C29 541 58 541 87.2 541C116.3 541 145.7 541 174.8 541C204 541 233 541 262 541C291 541 320 541 349 541C378 541 407 541 436.2 541C465.3 541 494.7 541 523.8 541C553 541 582 541 611 541C640 541 669 541 698 541C727 541 756 541 785.2 541C814.3 541 843.7 541 872.8 541C902 541 931 541 945.5 541L960 541L960 442L945.5 444.7C931 447.3 902 452.7 872.8 462.5C843.7 472.3 814.3 486.7 785.2 492C756 497.3 727 493.7 698 483.8C669 474 640 458 611 448.2C582 438.3 553 434.7 523.8 433.7C494.7 432.7 465.3 434.3 436.2 436.2C407 438 378 440 349 450.8C320 461.7 291 481.3 262 486.7C233 492 204 483 174.8 482.2C145.7 481.3 116.3 488.7 87.2 486C58 483.3 29 470.7 14.5 464.3L0 458Z" fill="#006c55"></path></svg>